<?xml version="1.0" encoding="UTF-8"?>
<!DOCTYPE svg PUBLIC "-//W3C//DTD SVG 1.1//EN" "http://www.w3.org/Graphics/SVG/1.1/DTD/svg11.dtd">
<!-- Creator: CorelDRAW -->
<svg xmlns="http://www.w3.org/2000/svg" xml:space="preserve" width="23.7311mm" height="22.9889mm" style="shape-rendering:geometricPrecision; text-rendering:geometricPrecision; image-rendering:optimizeQuality; fill-rule:evenodd; clip-rule:evenodd"
viewBox="0 0 3.74286 3.6258"
 xmlns:xlink="http://www.w3.org/1999/xlink">
 <defs>
  <style type="text/css">
   <![CDATA[
    .fil0 {fill:#E5D7BE}
   ]]>
  </style>
 </defs>
 <g id="Capa_x0020_1">
  <metadata id="CorelCorpID_0Corel-Layer"/>
  <path class="fil0" d="M0.00148256 3.6258c-0.00170337,-0.281845 -0.0245412,-0.526705 0.190273,-0.745178 0.188554,-0.184027 0.571276,-0.198963 0.90285,-0.318436 0.0984013,-0.0325691 0.183996,-0.124599 0.228078,-0.276041 0.0166394,-0.358371 -0.151537,-0.455337 -0.253724,-0.679046 -0.105672,-0.352298 -0.0845377,-0.715164 0,-1.1203 0.169107,-0.362866 0.431994,-0.487038 0.795317,-0.486802 0.389268,0.000678195 0.654395,0.141601 0.768883,0.465667 0.14444,0.553107 0.140859,0.78915 0.0105672,1.18372 -0.0890958,0.220666 -0.237794,0.289794 -0.229924,0.620879 0.0572838,0.144345 0.157388,0.233189 0.253645,0.303831 0.298579,0.147957 0.549621,0.0820142 0.832366,0.259007 0.290504,0.241343 0.232731,0.513472 0.243046,0.782116l-3.74138 0.010583z"/>
 </g>
</svg>
