<?xml version="1.0" encoding="UTF-8"?>
<!DOCTYPE svg PUBLIC "-//W3C//DTD SVG 1.1//EN" "http://www.w3.org/Graphics/SVG/1.1/DTD/svg11.dtd">
<!-- Creator: CorelDRAW -->
<svg xmlns="http://www.w3.org/2000/svg" xml:space="preserve" width="37.7236mm" height="23.777mm" style="shape-rendering:geometricPrecision; text-rendering:geometricPrecision; image-rendering:optimizeQuality; fill-rule:evenodd; clip-rule:evenodd"
viewBox="0 0 8.40739 5.29914"
 xmlns:xlink="http://www.w3.org/1999/xlink">
 <defs>
  <style type="text/css">
   <![CDATA[
    .str2 {stroke:#E5D7BE;stroke-width:0.222868}
    .str0 {stroke:#E5D7BE;stroke-width:0.312015}
    .str1 {stroke:#E5D7BE;stroke-width:0.445736}
    .fil0 {fill:none}
    .fil1 {fill:#E5D7BE;fill-rule:nonzero}
   ]]>
  </style>
 </defs>
 <g id="Capa_x0020_1">
  <metadata id="CorelCorpID_0Corel-Layer"/>
  <g id="_135060832">
   <line id="_135060736" class="fil0 str0" x1="4.51223" y1="0.474241" x2="2.12222" y2= "0.470698" />
   <line id="_135061480" class="fil0 str0" x1="3.60023" y1="1.44829" x2="1.21022" y2= "1.43873" />
   <line id="_135060904" class="fil0 str0" x1="3.27228" y1="2.41235" x2="0.882268" y2= "2.42538" />
   <line id="_135061408" class="fil0 str0" x1="3.54684" y1="3.59045" x2="1.1568" y2= "3.58129" />
   <line id="_135060928" class="fil0 str0" x1="4.71284" y1="4.75942" x2="2.32282" y2= "4.75581" />
   <circle id="_135061288" class="fil0 str1" cx="5.75783" cy="2.64958" r="2.42671"/>
   <circle id="_135060976" class="fil0 str2" cx="5.75784" cy="2.64957" r="2.01681"/>
   <path id="_135061192" class="fil1" d="M5.68862 4.08843l0 -0.29851c-0.149589,-0.0186986 -0.270829,-0.0521066 -0.364278,-0.100268 -0.0934709,-0.0480949 -0.174461,-0.126299 -0.242481,-0.23341 -0.0679302,-0.107578 -0.107578,-0.238469 -0.118343,-0.393095l0.300203 -0.0566754c0.0232897,0.160331 0.0640746,0.278184 0.122912,0.353513 0.0839099,0.106442 0.184669,0.16539 0.301986,0.177269l0 -0.950555c-0.122934,-0.0232006 -0.248097,-0.0708052 -0.376736,-0.142747 -0.0951424,-0.0532209 -0.168199,-0.126857 -0.219815,-0.220862 -0.0515494,-0.0941172 -0.0770009,-0.200581 -0.0770009,-0.320128 0,-0.212438 0.0753071,-0.38467 0.225453,-0.516007 0.100848,-0.088969 0.250415,-0.142769 0.448099,-0.162582l0 -0.142769 0.176155 0 0 0.142769c0.173325,0.0163585 0.311592,0.0673508 0.412997,0.152375 0.130801,0.108158 0.208983,0.257168 0.235639,0.446338l-0.308784 0.0464903c-0.0174952,-0.117318 -0.0543575,-0.207312 -0.110387,-0.269693 -0.055561,-0.0623139 -0.132005,-0.103656 -0.229465,-0.123491l0 0.861096c0.150124,0.0379099 0.249857,0.067373 0.29851,0.0883226 0.0929806,0.0407849 0.168845,0.0906405 0.227214,0.14901 0.0588595,0.0589486 0.104213,0.128639 0.13537,0.209006 0.0317141,0.0810126 0.0476046,0.168288 0.0476046,0.262294 0,0.207312 -0.0663256,0.379522 -0.197751,0.51779 -0.131425,0.138825 -0.301875,0.212438 -0.510948,0.222645l0 0.301875 -0.176155 0zm0 -2.6154c-0.116114,0.0175843 -0.207869,0.0639854 -0.274752,0.139382 -0.0668827,0.0753071 -0.100291,0.164254 -0.100291,0.267353 0,0.101405 0.0283488,0.18692 0.0855814,0.255474 0.0571657,0.0685765 0.153512,0.123491 0.289461,0.164276l0 -0.826484zm0.176155 2.06423c0.116159,-0.0141298 0.211881,-0.0645649 0.287745,-0.150614 0.0759535,-0.0861608 0.11393,-0.193182 0.11393,-0.320685 0,-0.108158 -0.0272122,-0.195433 -0.0804554,-0.26109 -0.0538672,-0.0657684 -0.160889,-0.124695 -0.32122,-0.176801l0 0.909191z"/>
   <line id="_135061120" class="fil0 str0" x1="0.517856" y1="2.42463" x2="0" y2= "2.4244" />
  </g>
 </g>
</svg>
