<?xml version="1.0" encoding="UTF-8"?>
<!DOCTYPE svg PUBLIC "-//W3C//DTD SVG 1.1//EN" "http://www.w3.org/Graphics/SVG/1.1/DTD/svg11.dtd">
<!-- Creator: CorelDRAW -->
<svg xmlns="http://www.w3.org/2000/svg" xml:space="preserve" width="5.1328mm" height="5.8281mm" style="shape-rendering:geometricPrecision; text-rendering:geometricPrecision; image-rendering:optimizeQuality; fill-rule:evenodd; clip-rule:evenodd"
viewBox="0 0 0.175442 0.199208"
 xmlns:xlink="http://www.w3.org/1999/xlink">
 <defs>
  <style type="text/css">
   <![CDATA[
    .str0 {stroke:#D97C2B;stroke-width:0.00854515}
    .str1 {stroke:#D97C2B;stroke-width:0.0119632}
    .fil0 {fill:none}
    .fil1 {fill:#D97C2B;fill-rule:nonzero}
   ]]>
  </style>
 </defs>
 <g id="Capa_x0020_1">
  <metadata id="CorelCorpID_0Corel-Layer"/>
  <g id="_153059080">
   <ellipse id="_135113640" class="fil0 str0" cx="0.114187" cy="0.113502" rx="0.0569824" ry="0.055773"/>
   <path id="_135113544" class="fil0 str1" d="M0.150665 0.0706616l-0.000321298 -0.0486595c-0.000304207,-0.00807346 -0.00375987,-0.0156752 -0.012141,-0.0160205l-0.081678 0c-0.00425549,0.000126468 -0.00784445,0.00379747 -0.00943727,0.00559195l-0.0371851 0.0493124c-0.00141166,0.00218756 -0.00166801,0.00337363 -0.0021568,0.00501771l-0.000663104 0.00446741 -0.00112454 0.113145c0.000215338,0.00656268 0.00608415,0.00862377 0.0128006,0.00931422l0.122336 0.000420422c0.00650115,-0.000328134 0.00914673,-0.00582096 0.0096321,-0.00875707l-4.78529e-005 -0.027594"/>
   <path id="_135113760" class="fil1" d="M0.112858 0.14995l0 -0.00769747c-0.00385557,-0.000481947 -0.00697968,-0.0013433 -0.00938941,-0.00258405 -0.00240973,-0.00124076 -0.00449817,-0.00325399 -0.00625163,-0.00601579 -0.00175005,-0.00277547 -0.00277205,-0.00614909 -0.00304891,-0.0101346l0.00773849 -0.00145951c0.000598161,0.00413244 0.00165092,0.00716767 0.00316854,0.00911255 0.00216021,0.0027447 0.00476136,0.00426232 0.00778293,0.00456995l0 -0.0245041c-0.00316854,-0.000601579 -0.00639519,-0.00182524 -0.00971071,-0.00368125 -0.00245417,-0.00137064 -0.00433752,-0.00327108 -0.00566715,-0.00569449 -0.00132621,-0.00242341 -0.00198589,-0.00517153 -0.00198589,-0.0082512 0,-0.00547573 0.00194488,-0.0099158 0.00581412,-0.0133031 0.00259773,-0.00229352 0.0064533,-0.00368125 0.0115496,-0.00419054l0 -0.00368125 0.0045426 0 0 0.00368125c0.00446741,0.000420422 0.00803244,0.00173638 0.0106473,0.00392735 0.00337021,0.00278914 0.00538686,0.00662762 0.00607389,0.0115052l-0.00796066 0.00119974c-0.000451184,-0.00302498 -0.00140141,-0.00534585 -0.00284725,-0.00695234 -0.00142875,-0.00160649 -0.00340097,-0.00267292 -0.00591325,-0.00318222l0 0.0221969c0.00386925,0.000977566 0.00643963,0.00173638 0.00769406,0.00227643 0.00239606,0.00105276 0.00435461,0.00233795 0.00585856,0.0038419 0.00151762,0.00151762 0.0026866,0.00331552 0.00348984,0.00539028 0.000816917,0.00208844 0.00122708,0.00433752 0.00122708,0.00676093 0,0.00534243 -0.00170903,0.00978249 -0.00509633,0.0133475 -0.00339072,0.00357529 -0.00778293,0.00547573 -0.0131732,0.00573892l0 0.00778293 -0.0045426 0zm0 -0.0674247c-0.00299422,0.000454602 -0.00535952,0.00165092 -0.00708222,0.00359238 -0.0017227,0.00194146 -0.00258405,0.00423498 -0.00258405,0.00689423 0,0.0026114 0.000728047,0.00481947 0.00220465,0.00658319 0.0014766,0.00177056 0.00395811,0.00318563 0.00746163,0.0042384l0 -0.0213082zm0.0045426 0.0532158c0.00299422,-0.000365733 0.00546206,-0.0016646 0.00741719,-0.00388634 0.00195855,-0.00221832 0.00293611,-0.0049767 0.00293611,-0.00826487 0,-0.00278914 -0.000700703,-0.00503822 -0.00207135,-0.00673016 -0.00138773,-0.00169536 -0.00414953,-0.00321298 -0.00828196,-0.00455628l0 0.0234376z"/>
  </g>
 </g>
</svg>
