<?xml version="1.0" encoding="UTF-8"?>
<!DOCTYPE svg PUBLIC "-//W3C//DTD SVG 1.1//EN" "http://www.w3.org/Graphics/SVG/1.1/DTD/svg11.dtd">
<!-- Creator: CorelDRAW -->
<svg xmlns="http://www.w3.org/2000/svg" xml:space="preserve" width="23.0906mm" height="20.297mm" style="shape-rendering:geometricPrecision; text-rendering:geometricPrecision; image-rendering:optimizeQuality; fill-rule:evenodd; clip-rule:evenodd"
viewBox="0 0 3.61639 3.17886"
 xmlns:xlink="http://www.w3.org/1999/xlink">
 <defs>
  <style type="text/css">
   <![CDATA[
    .str0 {stroke:#E5D7BE;stroke-width:0.109632}
    .fil1 {fill:none}
    .fil0 {fill:#E5D7BE;fill-rule:nonzero}
   ]]>
  </style>
 </defs>
 <g id="Capa_x0020_1">
  <metadata id="CorelCorpID_0Corel-Layer"/>
  <g id="_134109832">
   <path id="_134110144" class="fil0" d="M0.764496 1.87413l0 -0.162663c-0.0815037,-0.0101958 -0.147565,-0.0283947 -0.198497,-0.0546438 -0.0509163,-0.0262021 -0.0950667,-0.0688177 -0.132122,-0.127173 -0.0370087,-0.0586375 -0.0586219,-0.129945 -0.064495,-0.214206l0.163587 -0.0308849c0.012686,0.0873612 0.03491,0.15159 0.0669852,0.192624 0.0457166,0.0580111 0.100627,0.0901333 0.164542,0.0966016l0 -0.517949c-0.0669852,-0.0126547 -0.135192,-0.0385905 -0.205278,-0.0777918 -0.0518403,-0.0290055 -0.0916525,-0.0691309 -0.119781,-0.12036 -0.0280972,-0.0512765 -0.0419578,-0.109288 -0.0419578,-0.174425 0,-0.115772 0.0410338,-0.209617 0.122851,-0.281191 0.0549414,-0.0484731 0.136461,-0.0777918 0.244166,-0.0885984l0 -0.0777762 0.0959908 0 0 0.0777762c0.0944559,0.00892719 0.169789,0.0367111 0.225043,0.0830385 0.0712766,0.0589351 0.113892,0.140141 0.128411,0.243211l-0.168254 0.0253407c-0.009538,-0.0639312 -0.029632,-0.112968 -0.0601567,-0.14697 -0.0302741,-0.033939 -0.0719344,-0.0564762 -0.125043,-0.0672828l0 0.469226c0.0818169,0.0206422 0.136147,0.0366954 0.162663,0.0481285 0.0506657,0.022224 0.0920127,0.0493815 0.123806,0.0811904 0.0320752,0.0321222 0.0567895,0.0700863 0.0737668,0.113892 0.0172906,0.0441348 0.0259515,0.0916995 0.0259515,0.142929 0,0.112952 -0.0361473,0.206798 -0.107768,0.282146 -0.0716055,0.0756462 -0.164495,0.115756 -0.278419,0.121316l0 0.164495 -0.0959908 0zm0 -1.42516c-0.0632578,0.00956932 -0.113266,0.034863 -0.149711,0.0759438 -0.0364449,0.0410338 -0.0546438,0.0895068 -0.0546438,0.145685 0,0.0552546 0.0154425,0.101848 0.0466407,0.139217 0.0311512,0.0373689 0.0836493,0.0672828 0.157714,0.0895068l0 -0.450353zm0.0959908 1.12481c0.0633047,-0.00768991 0.115458,-0.0351763 0.156805,-0.0820675 0.0413783,-0.0469539 0.0620831,-0.105263 0.0620831,-0.174738 0,-0.0589351 -0.0148317,-0.1065 -0.0438529,-0.142287 -0.0293501,-0.0358184 -0.0876744,-0.0679406 -0.175036,-0.0963353l0 0.495428z"/>
   <polygon id="_134109688" class="fil1 str0" points="0.0548161,0.0548161 3.55496,0.0548161 3.56154,3.04887 2.96282,2.49001 2.39285,3.04887 1.79413,2.49001 1.22381,3.05028 0.625091,2.49141 0.0548161,3.04887 "/>
   <line id="_134110024" class="fil1 str0" x1="1.67748" y1="1.50456" x2="3.07676" y2= "1.50506" />
   <line id="_134110120" class="fil1 str0" x1="3.12621" y1="1.50451" x2="3.28492" y2= "1.50451" />
   <line id="_134109640" class="fil1 str0" x1="1.67748" y1="0.505091" x2="2.14108" y2= "0.505122" />
   <line id="_134110312" class="fil1 str0" x1="2.30137" y1="0.505028" x2="3.28492" y2= "0.505028" />
   <line id="_134109784" class="fil1 str0" x1="1.67748" y1="1.00483" x2="2.14108" y2= "1.00487" />
   <line id="_134109952" class="fil1 str0" x1="2.79311" y1="1.00476" x2="3.28492" y2= "1.00476" />
   <line id="_134110048" class="fil1 str0" x1="2.20248" y1="1.00483" x2="2.66608" y2= "1.00487" />
  </g>
 </g>
</svg>
